<?xml version="1.0" encoding="iso-8859-1"?>
<!-- Generator: Adobe Illustrator 16.0.0, SVG Export Plug-In . SVG Version: 6.00 Build 0)  -->
<!DOCTYPE svg PUBLIC "-//W3C//DTD SVG 1.1//EN" "http://www.w3.org/Graphics/SVG/1.1/DTD/svg11.dtd">
<svg version="1.1" id="Capa_1" xmlns="http://www.w3.org/2000/svg" xmlns:xlink="http://www.w3.org/1999/xlink" x="0px" y="0px"
	 width="92.792px" height="92.792px" viewBox="0 0 92.792 92.792" style="enable-background:new 0 0 92.792 92.792;"
	 xml:space="preserve">
<g>
	<g>
		<path d="M70.803,9.608c1.28-0.106,2.545-0.101,3.799-0.041C66.786,3.572,57.008,0,46.396,0c-1.75,0-3.477,0.105-5.177,0.295
			l0.582,38.453C44.541,23.065,56.057,10.838,70.803,9.608z"/>
		<path d="M78.844,13.248c-1.457,0.341-2.886,0.763-4.25,1.289c-12.088,4.654-18.438,17.388-14.182,28.441
			c4.257,11.053,17.505,16.241,29.594,11.586c0.756-0.291,1.498-0.641,2.234-1.012c0.361-2.332,0.551-4.723,0.551-7.156
			C92.792,33.405,87.448,21.669,78.844,13.248z"/>
		<path d="M53.789,38.216c0-13.43,10.14-24.529,23.374-26.536c-0.281-0.25-0.564-0.496-0.854-0.739
			c-1.096-0.042-2.187-0.04-3.264,0.052c-15.943,1.328-27.65,16.966-26.152,34.929c1.498,17.961,15.636,31.443,31.576,30.112
			c1.389-0.115,2.777-0.345,4.157-0.671c2.746-3.428,5.015-7.252,6.706-11.377c-2.499,0.722-5.143,1.123-7.882,1.123
			C66.172,65.109,53.789,53.068,53.789,38.216z"/>
		<path d="M42.042,54.505l0.575,38.121c1.249,0.103,2.507,0.166,3.78,0.166c10.083,0,19.404-3.226,27.014-8.687
			C58.385,83.488,45.425,71.197,42.042,54.505z"/>
		<path d="M0,46.396C0,55.141,2.421,63.318,6.628,70.3c5.561-7.743,23.106-60.86,25.464-68.044C13.47,8.289,0,25.765,0,46.396z"/>
		<path d="M15.801,81.262c3.842,3.372,8.242,6.122,13.049,8.088l9.453-88.631c-1.24,0.218-2.467,0.476-3.671,0.79L15.801,81.262z"/>
	</g>
</g>
<g>
</g>
<g>
</g>
<g>
</g>
<g>
</g>
<g>
</g>
<g>
</g>
<g>
</g>
<g>
</g>
<g>
</g>
<g>
</g>
<g>
</g>
<g>
</g>
<g>
</g>
<g>
</g>
<g>
</g>
</svg>
