<?xml version="1.0" encoding="iso-8859-1"?>
<!-- Generator: Adobe Illustrator 19.0.0, SVG Export Plug-In . SVG Version: 6.00 Build 0)  -->
<svg version="1.1" id="Capa_1" xmlns="http://www.w3.org/2000/svg" xmlns:xlink="http://www.w3.org/1999/xlink" x="0px" y="0px"
	 viewBox="0 0 512 512" style="enable-background:new 0 0 512 512;" xml:space="preserve">
<g>
	<g>
		<path d="M225.843,364.726c14.145-16.698,20.194-38.654,16.597-60.24L231.859,241H106.445l-10.581,63.486
			c-3.598,21.586,2.452,43.542,16.597,60.24c10.855,12.813,25.554,21.412,41.691,24.729V482h-40.017v30h110.034v-30h-40.017v-92.545
			h0C200.29,386.138,214.989,377.54,225.843,364.726z"/>
	</g>
</g>
<g>
	<g>
		<rect x="347.15" y="271" width="70" height="110"/>
	</g>
</g>
<g>
	<g>
		<rect x="272.15" width="90" height="60"/>
	</g>
</g>
<g>
	<g>
		<path d="M417.152,241v-29c0-33.45-23.586-61.497-55-68.382V90h-90v53.618c-31.099,6.816-54.512,34.375-54.978,67.382h40.099
			l4.178,25.068l10.581,63.486c5.05,30.301-3.441,61.123-23.298,84.564c-8.798,10.385-19.583,18.913-31.582,25.14V452h37.017v60
			h162.983V411h-100V241H417.152z"/>
	</g>
</g>
<g>
</g>
<g>
</g>
<g>
</g>
<g>
</g>
<g>
</g>
<g>
</g>
<g>
</g>
<g>
</g>
<g>
</g>
<g>
</g>
<g>
</g>
<g>
</g>
<g>
</g>
<g>
</g>
<g>
</g>
</svg>
