<?xml version="1.0" encoding="iso-8859-1"?>
<!-- Generator: Adobe Illustrator 19.0.0, SVG Export Plug-In . SVG Version: 6.00 Build 0)  -->
<svg version="1.1" id="Capa_1" xmlns="http://www.w3.org/2000/svg" xmlns:xlink="http://www.w3.org/1999/xlink" x="0px" y="0px"
	 viewBox="0 0 512.001 512.001" style="enable-background:new 0 0 512.001 512.001;" xml:space="preserve">
<g>
	<g>
		<circle cx="297.038" cy="49.58" r="49.58"/>
	</g>
</g>
<g>
	<g>
		<path d="M472.745,188.985c-4.243-11.415-16.936-17.23-28.352-12.985l-63.398,23.566l-28.579-13.997v-36.156
			c0-18.498-14.995-33.492-33.494-33.492h-59.728c-7.751,0-14.882,2.64-20.557,7.06l38.785,17.144l-77.041-15.062
			c-6.081-1.189-12.384,0.236-17.362,3.926l-76.05,56.375c-9.783,7.252-11.834,21.062-4.583,30.845
			c7.256,9.788,21.067,11.831,30.845,4.583l68.236-50.582l67.493,13.196l-43.259,1.299v124.271l-21.194,63.321l-99.343,88.813
			c-12.004,10.731-13.036,29.163-2.304,41.167c10.737,12.011,29.17,13.029,41.167,2.304l105.105-93.965
			c3.777-3.376,6.608-7.678,8.216-12.481l25.732-76.877h18.253l80.023,46.755v114.834c0,16.102,13.053,29.155,29.155,29.155
			c16.102,0,29.155-13.053,29.155-29.155V351.281c0-10.362-5.501-19.946-14.447-25.173l-72.805-42.538v-48.893l17.686,8.662
			c5.424,2.657,11.71,2.975,17.382,0.866l72.275-26.867C471.176,213.094,476.989,200.4,472.745,188.985z"/>
	</g>
</g>
<g>
	<g>
		<path d="M143.84,235.099c-17.685,13.11-42.649,9.401-55.758-8.284c-13.109-17.685-9.4-42.649,8.285-55.759l15.05-11.156
			c-4.768-1.253-9.771-1.926-14.932-1.926c-32.373,0.001-58.617,26.244-58.617,58.617c0,32.372,26.244,58.616,58.616,58.616
			c28.638,0,52.463-20.541,57.584-47.69L143.84,235.099z"/>
	</g>
</g>
<g>
</g>
<g>
</g>
<g>
</g>
<g>
</g>
<g>
</g>
<g>
</g>
<g>
</g>
<g>
</g>
<g>
</g>
<g>
</g>
<g>
</g>
<g>
</g>
<g>
</g>
<g>
</g>
<g>
</g>
</svg>
